<mxfile host="Electron" modified="2024-03-18T09:05:45.961Z" agent="Mozilla/5.0 (Windows NT 10.0; Win64; x64) AppleWebKit/537.36 (KHTML, like Gecko) draw.io/23.1.5 Chrome/120.0.6099.109 Electron/28.1.0 Safari/537.36" etag="x46P91Fj5i727kzV7evp" version="23.1.5" type="device">
  <diagram name="Pagina-1" id="VsVf04yd9bGj-8bi6LaC">
    <mxGraphModel dx="2117" dy="1798" grid="1" gridSize="10" guides="1" tooltips="1" connect="1" arrows="1" fold="1" page="1" pageScale="1" pageWidth="827" pageHeight="1169" math="0" shadow="0">
      <root>
        <mxCell id="0" />
        <mxCell id="1" parent="0" />
        <mxCell id="yMm0w9uxBuSeGEpfE0gq-10" style="edgeStyle=orthogonalEdgeStyle;rounded=0;orthogonalLoop=1;jettySize=auto;html=1;exitX=0.5;exitY=1;exitDx=0;exitDy=0;entryX=0;entryY=0.5;entryDx=0;entryDy=0;" parent="1" source="yMm0w9uxBuSeGEpfE0gq-1" target="yMm0w9uxBuSeGEpfE0gq-2" edge="1">
          <mxGeometry relative="1" as="geometry">
            <Array as="points">
              <mxPoint x="50" y="220" />
              <mxPoint x="50" y="265" />
            </Array>
          </mxGeometry>
        </mxCell>
        <mxCell id="yMm0w9uxBuSeGEpfE0gq-11" style="edgeStyle=orthogonalEdgeStyle;rounded=0;orthogonalLoop=1;jettySize=auto;html=1;exitX=0.5;exitY=1;exitDx=0;exitDy=0;entryX=0;entryY=0.5;entryDx=0;entryDy=0;" parent="1" source="yMm0w9uxBuSeGEpfE0gq-1" target="yMm0w9uxBuSeGEpfE0gq-4" edge="1">
          <mxGeometry relative="1" as="geometry">
            <Array as="points">
              <mxPoint x="50" y="220" />
              <mxPoint x="50" y="305" />
            </Array>
          </mxGeometry>
        </mxCell>
        <mxCell id="yMm0w9uxBuSeGEpfE0gq-12" style="edgeStyle=orthogonalEdgeStyle;rounded=0;orthogonalLoop=1;jettySize=auto;html=1;exitX=0.5;exitY=1;exitDx=0;exitDy=0;entryX=0;entryY=0.5;entryDx=0;entryDy=0;" parent="1" source="yMm0w9uxBuSeGEpfE0gq-1" target="yMm0w9uxBuSeGEpfE0gq-8" edge="1">
          <mxGeometry relative="1" as="geometry">
            <Array as="points">
              <mxPoint x="50" y="220" />
              <mxPoint x="50" y="345" />
            </Array>
          </mxGeometry>
        </mxCell>
        <mxCell id="yMm0w9uxBuSeGEpfE0gq-102" style="edgeStyle=orthogonalEdgeStyle;rounded=0;orthogonalLoop=1;jettySize=auto;html=1;exitX=1;exitY=0.5;exitDx=0;exitDy=0;entryX=0;entryY=0.5;entryDx=0;entryDy=0;endArrow=doubleBlock;endFill=1;" parent="1" source="yMm0w9uxBuSeGEpfE0gq-1" target="yMm0w9uxBuSeGEpfE0gq-101" edge="1">
          <mxGeometry relative="1" as="geometry" />
        </mxCell>
        <mxCell id="yMm0w9uxBuSeGEpfE0gq-107" style="edgeStyle=orthogonalEdgeStyle;rounded=0;orthogonalLoop=1;jettySize=auto;html=1;exitX=0.5;exitY=1;exitDx=0;exitDy=0;entryX=0.5;entryY=0;entryDx=0;entryDy=0;endArrow=doubleBlock;endFill=1;" parent="1" source="yMm0w9uxBuSeGEpfE0gq-1" target="yMm0w9uxBuSeGEpfE0gq-105" edge="1">
          <mxGeometry relative="1" as="geometry" />
        </mxCell>
        <mxCell id="yMm0w9uxBuSeGEpfE0gq-1" value="Cinema" style="rounded=0;whiteSpace=wrap;html=1;" parent="1" vertex="1">
          <mxGeometry x="-40" y="160" width="120" height="60" as="geometry" />
        </mxCell>
        <mxCell id="yMm0w9uxBuSeGEpfE0gq-2" value="" style="ellipse;whiteSpace=wrap;html=1;aspect=fixed;" parent="1" vertex="1">
          <mxGeometry x="120" y="250" width="30" height="30" as="geometry" />
        </mxCell>
        <mxCell id="yMm0w9uxBuSeGEpfE0gq-3" value="Nome" style="text;html=1;align=left;verticalAlign=middle;whiteSpace=wrap;rounded=0;" parent="1" vertex="1">
          <mxGeometry x="150" y="250" width="60" height="30" as="geometry" />
        </mxCell>
        <mxCell id="yMm0w9uxBuSeGEpfE0gq-4" value="" style="ellipse;whiteSpace=wrap;html=1;aspect=fixed;" parent="1" vertex="1">
          <mxGeometry x="120" y="290" width="30" height="30" as="geometry" />
        </mxCell>
        <mxCell id="yMm0w9uxBuSeGEpfE0gq-5" value="Indirizzo" style="text;html=1;align=left;verticalAlign=middle;whiteSpace=wrap;rounded=0;" parent="1" vertex="1">
          <mxGeometry x="150" y="290" width="60" height="30" as="geometry" />
        </mxCell>
        <mxCell id="yMm0w9uxBuSeGEpfE0gq-8" value="" style="ellipse;whiteSpace=wrap;html=1;aspect=fixed;" parent="1" vertex="1">
          <mxGeometry x="120" y="330" width="30" height="30" as="geometry" />
        </mxCell>
        <mxCell id="yMm0w9uxBuSeGEpfE0gq-9" value="Telefono" style="text;html=1;align=left;verticalAlign=middle;whiteSpace=wrap;rounded=0;" parent="1" vertex="1">
          <mxGeometry x="150" y="330" width="60" height="30" as="geometry" />
        </mxCell>
        <mxCell id="yMm0w9uxBuSeGEpfE0gq-20" style="edgeStyle=orthogonalEdgeStyle;rounded=0;orthogonalLoop=1;jettySize=auto;html=1;exitX=0.5;exitY=1;exitDx=0;exitDy=0;entryX=0;entryY=0.5;entryDx=0;entryDy=0;" parent="1" source="yMm0w9uxBuSeGEpfE0gq-13" target="yMm0w9uxBuSeGEpfE0gq-14" edge="1">
          <mxGeometry relative="1" as="geometry" />
        </mxCell>
        <mxCell id="yMm0w9uxBuSeGEpfE0gq-21" style="edgeStyle=orthogonalEdgeStyle;rounded=0;orthogonalLoop=1;jettySize=auto;html=1;exitX=0.5;exitY=1;exitDx=0;exitDy=0;entryX=0;entryY=0.5;entryDx=0;entryDy=0;" parent="1" source="yMm0w9uxBuSeGEpfE0gq-13" target="yMm0w9uxBuSeGEpfE0gq-16" edge="1">
          <mxGeometry relative="1" as="geometry" />
        </mxCell>
        <mxCell id="yMm0w9uxBuSeGEpfE0gq-22" style="edgeStyle=orthogonalEdgeStyle;rounded=0;orthogonalLoop=1;jettySize=auto;html=1;exitX=0.5;exitY=1;exitDx=0;exitDy=0;entryX=0;entryY=0.5;entryDx=0;entryDy=0;" parent="1" source="yMm0w9uxBuSeGEpfE0gq-13" target="yMm0w9uxBuSeGEpfE0gq-18" edge="1">
          <mxGeometry relative="1" as="geometry" />
        </mxCell>
        <mxCell id="yMm0w9uxBuSeGEpfE0gq-104" style="edgeStyle=orthogonalEdgeStyle;rounded=0;orthogonalLoop=1;jettySize=auto;html=1;exitX=0;exitY=0.5;exitDx=0;exitDy=0;entryX=1;entryY=0.5;entryDx=0;entryDy=0;" parent="1" source="yMm0w9uxBuSeGEpfE0gq-13" target="yMm0w9uxBuSeGEpfE0gq-101" edge="1">
          <mxGeometry relative="1" as="geometry" />
        </mxCell>
        <mxCell id="yMm0w9uxBuSeGEpfE0gq-110" style="edgeStyle=orthogonalEdgeStyle;rounded=0;orthogonalLoop=1;jettySize=auto;html=1;exitX=1;exitY=0.5;exitDx=0;exitDy=0;entryX=0;entryY=0.5;entryDx=0;entryDy=0;endArrow=doubleBlock;endFill=1;" parent="1" source="yMm0w9uxBuSeGEpfE0gq-13" target="yMm0w9uxBuSeGEpfE0gq-109" edge="1">
          <mxGeometry relative="1" as="geometry" />
        </mxCell>
        <mxCell id="yMm0w9uxBuSeGEpfE0gq-13" value="Theater" style="rounded=0;whiteSpace=wrap;html=1;" parent="1" vertex="1">
          <mxGeometry x="520" y="160" width="120" height="60" as="geometry" />
        </mxCell>
        <mxCell id="yMm0w9uxBuSeGEpfE0gq-14" value="" style="ellipse;whiteSpace=wrap;html=1;aspect=fixed;" parent="1" vertex="1">
          <mxGeometry x="640" y="250" width="30" height="30" as="geometry" />
        </mxCell>
        <mxCell id="yMm0w9uxBuSeGEpfE0gq-15" value="Nome" style="text;html=1;align=left;verticalAlign=middle;whiteSpace=wrap;rounded=0;" parent="1" vertex="1">
          <mxGeometry x="670" y="250" width="60" height="30" as="geometry" />
        </mxCell>
        <mxCell id="yMm0w9uxBuSeGEpfE0gq-16" value="" style="ellipse;whiteSpace=wrap;html=1;aspect=fixed;" parent="1" vertex="1">
          <mxGeometry x="640" y="290" width="30" height="30" as="geometry" />
        </mxCell>
        <mxCell id="yMm0w9uxBuSeGEpfE0gq-17" value="CapacitÃ " style="text;html=1;align=left;verticalAlign=middle;whiteSpace=wrap;rounded=0;" parent="1" vertex="1">
          <mxGeometry x="670" y="290" width="60" height="30" as="geometry" />
        </mxCell>
        <mxCell id="yMm0w9uxBuSeGEpfE0gq-18" value="" style="ellipse;whiteSpace=wrap;html=1;aspect=fixed;" parent="1" vertex="1">
          <mxGeometry x="640" y="330" width="30" height="30" as="geometry" />
        </mxCell>
        <mxCell id="yMm0w9uxBuSeGEpfE0gq-19" value="Tiposchermo" style="text;html=1;align=left;verticalAlign=middle;whiteSpace=wrap;rounded=0;" parent="1" vertex="1">
          <mxGeometry x="670" y="330" width="80" height="30" as="geometry" />
        </mxCell>
        <mxCell id="yMm0w9uxBuSeGEpfE0gq-23" style="edgeStyle=orthogonalEdgeStyle;rounded=0;orthogonalLoop=1;jettySize=auto;html=1;exitX=0.5;exitY=1;exitDx=0;exitDy=0;entryX=0;entryY=0.5;entryDx=0;entryDy=0;" parent="1" source="yMm0w9uxBuSeGEpfE0gq-26" target="yMm0w9uxBuSeGEpfE0gq-27" edge="1">
          <mxGeometry relative="1" as="geometry">
            <Array as="points">
              <mxPoint x="1160" y="220" />
              <mxPoint x="1160" y="235" />
            </Array>
          </mxGeometry>
        </mxCell>
        <mxCell id="yMm0w9uxBuSeGEpfE0gq-24" style="edgeStyle=orthogonalEdgeStyle;rounded=0;orthogonalLoop=1;jettySize=auto;html=1;exitX=0.5;exitY=1;exitDx=0;exitDy=0;entryX=0;entryY=0.5;entryDx=0;entryDy=0;" parent="1" source="yMm0w9uxBuSeGEpfE0gq-26" target="yMm0w9uxBuSeGEpfE0gq-29" edge="1">
          <mxGeometry relative="1" as="geometry">
            <Array as="points">
              <mxPoint x="1160" y="220" />
              <mxPoint x="1160" y="275" />
            </Array>
          </mxGeometry>
        </mxCell>
        <mxCell id="yMm0w9uxBuSeGEpfE0gq-25" style="edgeStyle=orthogonalEdgeStyle;rounded=0;orthogonalLoop=1;jettySize=auto;html=1;exitX=0.5;exitY=1;exitDx=0;exitDy=0;entryX=0;entryY=0.5;entryDx=0;entryDy=0;" parent="1" source="yMm0w9uxBuSeGEpfE0gq-26" target="yMm0w9uxBuSeGEpfE0gq-31" edge="1">
          <mxGeometry relative="1" as="geometry">
            <Array as="points">
              <mxPoint x="1160" y="220" />
              <mxPoint x="1160" y="315" />
            </Array>
          </mxGeometry>
        </mxCell>
        <mxCell id="yMm0w9uxBuSeGEpfE0gq-37" style="edgeStyle=orthogonalEdgeStyle;rounded=0;orthogonalLoop=1;jettySize=auto;html=1;exitX=0.5;exitY=1;exitDx=0;exitDy=0;entryX=0;entryY=0.5;entryDx=0;entryDy=0;" parent="1" source="yMm0w9uxBuSeGEpfE0gq-26" target="yMm0w9uxBuSeGEpfE0gq-33" edge="1">
          <mxGeometry relative="1" as="geometry">
            <Array as="points">
              <mxPoint x="1160" y="220" />
              <mxPoint x="1160" y="355" />
            </Array>
          </mxGeometry>
        </mxCell>
        <mxCell id="yMm0w9uxBuSeGEpfE0gq-38" style="edgeStyle=orthogonalEdgeStyle;rounded=0;orthogonalLoop=1;jettySize=auto;html=1;exitX=0.5;exitY=1;exitDx=0;exitDy=0;entryX=0;entryY=0.5;entryDx=0;entryDy=0;" parent="1" source="yMm0w9uxBuSeGEpfE0gq-26" target="yMm0w9uxBuSeGEpfE0gq-35" edge="1">
          <mxGeometry relative="1" as="geometry">
            <Array as="points">
              <mxPoint x="1160" y="220" />
              <mxPoint x="1160" y="395" />
            </Array>
          </mxGeometry>
        </mxCell>
        <mxCell id="yMm0w9uxBuSeGEpfE0gq-112" style="edgeStyle=orthogonalEdgeStyle;rounded=0;orthogonalLoop=1;jettySize=auto;html=1;exitX=0;exitY=0.5;exitDx=0;exitDy=0;entryX=1;entryY=0.5;entryDx=0;entryDy=0;" parent="1" source="yMm0w9uxBuSeGEpfE0gq-26" target="yMm0w9uxBuSeGEpfE0gq-109" edge="1">
          <mxGeometry relative="1" as="geometry" />
        </mxCell>
        <mxCell id="yMm0w9uxBuSeGEpfE0gq-115" style="edgeStyle=orthogonalEdgeStyle;rounded=0;orthogonalLoop=1;jettySize=auto;html=1;exitX=0.5;exitY=1;exitDx=0;exitDy=0;entryX=0.5;entryY=0;entryDx=0;entryDy=0;endArrow=doubleBlock;endFill=1;" parent="1" source="yMm0w9uxBuSeGEpfE0gq-26" target="yMm0w9uxBuSeGEpfE0gq-113" edge="1">
          <mxGeometry relative="1" as="geometry" />
        </mxCell>
        <mxCell id="yMm0w9uxBuSeGEpfE0gq-127" style="edgeStyle=orthogonalEdgeStyle;rounded=0;orthogonalLoop=1;jettySize=auto;html=1;exitX=0.5;exitY=0;exitDx=0;exitDy=0;entryX=0.5;entryY=1;entryDx=0;entryDy=0;endArrow=doubleBlock;endFill=1;" parent="1" source="yMm0w9uxBuSeGEpfE0gq-26" target="yMm0w9uxBuSeGEpfE0gq-124" edge="1">
          <mxGeometry relative="1" as="geometry" />
        </mxCell>
        <mxCell id="yMm0w9uxBuSeGEpfE0gq-26" value="Movie" style="rounded=0;whiteSpace=wrap;html=1;" parent="1" vertex="1">
          <mxGeometry x="1070" y="160" width="120" height="60" as="geometry" />
        </mxCell>
        <mxCell id="yMm0w9uxBuSeGEpfE0gq-27" value="" style="ellipse;whiteSpace=wrap;html=1;aspect=fixed;" parent="1" vertex="1">
          <mxGeometry x="1220" y="220" width="30" height="30" as="geometry" />
        </mxCell>
        <mxCell id="yMm0w9uxBuSeGEpfE0gq-28" value="Titolo" style="text;html=1;align=left;verticalAlign=middle;whiteSpace=wrap;rounded=0;" parent="1" vertex="1">
          <mxGeometry x="1250" y="220" width="60" height="30" as="geometry" />
        </mxCell>
        <mxCell id="yMm0w9uxBuSeGEpfE0gq-29" value="" style="ellipse;whiteSpace=wrap;html=1;aspect=fixed;" parent="1" vertex="1">
          <mxGeometry x="1220" y="260" width="30" height="30" as="geometry" />
        </mxCell>
        <mxCell id="yMm0w9uxBuSeGEpfE0gq-30" value="Direttore" style="text;html=1;align=left;verticalAlign=middle;whiteSpace=wrap;rounded=0;" parent="1" vertex="1">
          <mxGeometry x="1250" y="260" width="60" height="30" as="geometry" />
        </mxCell>
        <mxCell id="yMm0w9uxBuSeGEpfE0gq-31" value="" style="ellipse;whiteSpace=wrap;html=1;aspect=fixed;" parent="1" vertex="1">
          <mxGeometry x="1220" y="300" width="30" height="30" as="geometry" />
        </mxCell>
        <mxCell id="yMm0w9uxBuSeGEpfE0gq-32" value="DataUscita" style="text;html=1;align=left;verticalAlign=middle;whiteSpace=wrap;rounded=0;" parent="1" vertex="1">
          <mxGeometry x="1250" y="300" width="80" height="30" as="geometry" />
        </mxCell>
        <mxCell id="yMm0w9uxBuSeGEpfE0gq-33" value="" style="ellipse;whiteSpace=wrap;html=1;aspect=fixed;" parent="1" vertex="1">
          <mxGeometry x="1220" y="340" width="30" height="30" as="geometry" />
        </mxCell>
        <mxCell id="yMm0w9uxBuSeGEpfE0gq-34" value="Durata" style="text;html=1;align=left;verticalAlign=middle;whiteSpace=wrap;rounded=0;" parent="1" vertex="1">
          <mxGeometry x="1250" y="340" width="80" height="30" as="geometry" />
        </mxCell>
        <mxCell id="yMm0w9uxBuSeGEpfE0gq-35" value="" style="ellipse;whiteSpace=wrap;html=1;aspect=fixed;" parent="1" vertex="1">
          <mxGeometry x="1220" y="380" width="30" height="30" as="geometry" />
        </mxCell>
        <mxCell id="yMm0w9uxBuSeGEpfE0gq-36" value="Valutazione" style="text;html=1;align=left;verticalAlign=middle;whiteSpace=wrap;rounded=0;" parent="1" vertex="1">
          <mxGeometry x="1250" y="380" width="80" height="30" as="geometry" />
        </mxCell>
        <mxCell id="yMm0w9uxBuSeGEpfE0gq-39" style="edgeStyle=orthogonalEdgeStyle;rounded=0;orthogonalLoop=1;jettySize=auto;html=1;exitX=0.5;exitY=1;exitDx=0;exitDy=0;entryX=0;entryY=0.5;entryDx=0;entryDy=0;" parent="1" source="yMm0w9uxBuSeGEpfE0gq-42" target="yMm0w9uxBuSeGEpfE0gq-43" edge="1">
          <mxGeometry relative="1" as="geometry" />
        </mxCell>
        <mxCell id="yMm0w9uxBuSeGEpfE0gq-40" style="edgeStyle=orthogonalEdgeStyle;rounded=0;orthogonalLoop=1;jettySize=auto;html=1;exitX=0.5;exitY=1;exitDx=0;exitDy=0;entryX=0;entryY=0.5;entryDx=0;entryDy=0;" parent="1" source="yMm0w9uxBuSeGEpfE0gq-42" target="yMm0w9uxBuSeGEpfE0gq-45" edge="1">
          <mxGeometry relative="1" as="geometry" />
        </mxCell>
        <mxCell id="yMm0w9uxBuSeGEpfE0gq-114" style="edgeStyle=orthogonalEdgeStyle;rounded=0;orthogonalLoop=1;jettySize=auto;html=1;exitX=0.5;exitY=0;exitDx=0;exitDy=0;entryX=0.5;entryY=1;entryDx=0;entryDy=0;" parent="1" source="yMm0w9uxBuSeGEpfE0gq-42" target="yMm0w9uxBuSeGEpfE0gq-113" edge="1">
          <mxGeometry relative="1" as="geometry" />
        </mxCell>
        <mxCell id="yMm0w9uxBuSeGEpfE0gq-117" style="edgeStyle=orthogonalEdgeStyle;rounded=0;orthogonalLoop=1;jettySize=auto;html=1;exitX=1;exitY=0.5;exitDx=0;exitDy=0;entryX=0;entryY=0.5;entryDx=0;entryDy=0;endArrow=doubleBlock;endFill=1;" parent="1" source="yMm0w9uxBuSeGEpfE0gq-42" target="yMm0w9uxBuSeGEpfE0gq-116" edge="1">
          <mxGeometry relative="1" as="geometry" />
        </mxCell>
        <mxCell id="yMm0w9uxBuSeGEpfE0gq-42" value="Shotime" style="rounded=0;whiteSpace=wrap;html=1;" parent="1" vertex="1">
          <mxGeometry x="1070" y="625" width="120" height="60" as="geometry" />
        </mxCell>
        <mxCell id="yMm0w9uxBuSeGEpfE0gq-43" value="" style="ellipse;whiteSpace=wrap;html=1;aspect=fixed;" parent="1" vertex="1">
          <mxGeometry x="1190" y="715" width="30" height="30" as="geometry" />
        </mxCell>
        <mxCell id="yMm0w9uxBuSeGEpfE0gq-44" value="Orario" style="text;html=1;align=left;verticalAlign=middle;whiteSpace=wrap;rounded=0;" parent="1" vertex="1">
          <mxGeometry x="1220" y="715" width="60" height="30" as="geometry" />
        </mxCell>
        <mxCell id="yMm0w9uxBuSeGEpfE0gq-45" value="" style="ellipse;whiteSpace=wrap;html=1;aspect=fixed;" parent="1" vertex="1">
          <mxGeometry x="1190" y="755" width="30" height="30" as="geometry" />
        </mxCell>
        <mxCell id="yMm0w9uxBuSeGEpfE0gq-46" value="Prezzo" style="text;html=1;align=left;verticalAlign=middle;whiteSpace=wrap;rounded=0;" parent="1" vertex="1">
          <mxGeometry x="1220" y="755" width="60" height="30" as="geometry" />
        </mxCell>
        <mxCell id="yMm0w9uxBuSeGEpfE0gq-49" style="edgeStyle=orthogonalEdgeStyle;rounded=0;orthogonalLoop=1;jettySize=auto;html=1;exitX=0.5;exitY=1;exitDx=0;exitDy=0;entryX=0;entryY=0.5;entryDx=0;entryDy=0;" parent="1" source="yMm0w9uxBuSeGEpfE0gq-53" target="yMm0w9uxBuSeGEpfE0gq-54" edge="1">
          <mxGeometry relative="1" as="geometry">
            <Array as="points">
              <mxPoint x="1670" y="730" />
            </Array>
          </mxGeometry>
        </mxCell>
        <mxCell id="yMm0w9uxBuSeGEpfE0gq-50" style="edgeStyle=orthogonalEdgeStyle;rounded=0;orthogonalLoop=1;jettySize=auto;html=1;exitX=0.5;exitY=1;exitDx=0;exitDy=0;entryX=0;entryY=0.5;entryDx=0;entryDy=0;" parent="1" source="yMm0w9uxBuSeGEpfE0gq-53" target="yMm0w9uxBuSeGEpfE0gq-56" edge="1">
          <mxGeometry relative="1" as="geometry">
            <Array as="points">
              <mxPoint x="1670" y="770" />
            </Array>
          </mxGeometry>
        </mxCell>
        <mxCell id="yMm0w9uxBuSeGEpfE0gq-119" style="edgeStyle=orthogonalEdgeStyle;rounded=0;orthogonalLoop=1;jettySize=auto;html=1;exitX=0;exitY=0.5;exitDx=0;exitDy=0;entryX=1;entryY=0.5;entryDx=0;entryDy=0;" parent="1" source="yMm0w9uxBuSeGEpfE0gq-53" target="yMm0w9uxBuSeGEpfE0gq-116" edge="1">
          <mxGeometry relative="1" as="geometry" />
        </mxCell>
        <mxCell id="yMm0w9uxBuSeGEpfE0gq-122" style="edgeStyle=orthogonalEdgeStyle;rounded=0;orthogonalLoop=1;jettySize=auto;html=1;exitX=0.5;exitY=0;exitDx=0;exitDy=0;endArrow=classic;endFill=1;" parent="1" source="yMm0w9uxBuSeGEpfE0gq-53" edge="1">
          <mxGeometry relative="1" as="geometry">
            <mxPoint x="1670.1111111111109" y="470.0000000000002" as="targetPoint" />
          </mxGeometry>
        </mxCell>
        <mxCell id="yMm0w9uxBuSeGEpfE0gq-53" value="Ticket" style="rounded=0;whiteSpace=wrap;html=1;" parent="1" vertex="1">
          <mxGeometry x="1610" y="625" width="120" height="60" as="geometry" />
        </mxCell>
        <mxCell id="yMm0w9uxBuSeGEpfE0gq-54" value="" style="ellipse;whiteSpace=wrap;html=1;aspect=fixed;" parent="1" vertex="1">
          <mxGeometry x="1720" y="715" width="30" height="30" as="geometry" />
        </mxCell>
        <mxCell id="yMm0w9uxBuSeGEpfE0gq-55" value="Numero Sedile" style="text;html=1;align=left;verticalAlign=middle;whiteSpace=wrap;rounded=0;" parent="1" vertex="1">
          <mxGeometry x="1750" y="715" width="90" height="30" as="geometry" />
        </mxCell>
        <mxCell id="yMm0w9uxBuSeGEpfE0gq-56" value="" style="ellipse;whiteSpace=wrap;html=1;aspect=fixed;" parent="1" vertex="1">
          <mxGeometry x="1720" y="755" width="30" height="30" as="geometry" />
        </mxCell>
        <mxCell id="yMm0w9uxBuSeGEpfE0gq-57" value="Data Acquisto" style="text;html=1;align=left;verticalAlign=middle;whiteSpace=wrap;rounded=0;" parent="1" vertex="1">
          <mxGeometry x="1750" y="755" width="80" height="30" as="geometry" />
        </mxCell>
        <mxCell id="yMm0w9uxBuSeGEpfE0gq-62" style="edgeStyle=orthogonalEdgeStyle;rounded=0;orthogonalLoop=1;jettySize=auto;html=1;exitX=0.5;exitY=1;exitDx=0;exitDy=0;entryX=0;entryY=0.5;entryDx=0;entryDy=0;" parent="1" source="yMm0w9uxBuSeGEpfE0gq-66" target="yMm0w9uxBuSeGEpfE0gq-67" edge="1">
          <mxGeometry relative="1" as="geometry">
            <Array as="points">
              <mxPoint x="1700" y="220" />
              <mxPoint x="1700" y="265" />
            </Array>
          </mxGeometry>
        </mxCell>
        <mxCell id="yMm0w9uxBuSeGEpfE0gq-63" style="edgeStyle=orthogonalEdgeStyle;rounded=0;orthogonalLoop=1;jettySize=auto;html=1;exitX=0.5;exitY=1;exitDx=0;exitDy=0;entryX=0;entryY=0.5;entryDx=0;entryDy=0;" parent="1" source="yMm0w9uxBuSeGEpfE0gq-66" target="yMm0w9uxBuSeGEpfE0gq-69" edge="1">
          <mxGeometry relative="1" as="geometry">
            <Array as="points">
              <mxPoint x="1700" y="220" />
              <mxPoint x="1700" y="305" />
            </Array>
          </mxGeometry>
        </mxCell>
        <mxCell id="yMm0w9uxBuSeGEpfE0gq-64" style="edgeStyle=orthogonalEdgeStyle;rounded=0;orthogonalLoop=1;jettySize=auto;html=1;exitX=0.5;exitY=1;exitDx=0;exitDy=0;entryX=0;entryY=0.5;entryDx=0;entryDy=0;" parent="1" source="yMm0w9uxBuSeGEpfE0gq-66" target="yMm0w9uxBuSeGEpfE0gq-71" edge="1">
          <mxGeometry relative="1" as="geometry">
            <Array as="points">
              <mxPoint x="1700" y="220" />
              <mxPoint x="1700" y="345" />
            </Array>
          </mxGeometry>
        </mxCell>
        <mxCell id="yMm0w9uxBuSeGEpfE0gq-65" style="edgeStyle=orthogonalEdgeStyle;rounded=0;orthogonalLoop=1;jettySize=auto;html=1;exitX=0.5;exitY=1;exitDx=0;exitDy=0;entryX=0;entryY=0.5;entryDx=0;entryDy=0;" parent="1" source="yMm0w9uxBuSeGEpfE0gq-66" target="yMm0w9uxBuSeGEpfE0gq-73" edge="1">
          <mxGeometry relative="1" as="geometry">
            <Array as="points">
              <mxPoint x="1700" y="220" />
              <mxPoint x="1700" y="385" />
            </Array>
          </mxGeometry>
        </mxCell>
        <mxCell id="yMm0w9uxBuSeGEpfE0gq-121" style="edgeStyle=orthogonalEdgeStyle;rounded=0;orthogonalLoop=1;jettySize=auto;html=1;exitX=0.5;exitY=1;exitDx=0;exitDy=0;entryX=0.5;entryY=0;entryDx=0;entryDy=0;endArrow=doubleBlock;endFill=1;" parent="1" source="yMm0w9uxBuSeGEpfE0gq-66" target="yMm0w9uxBuSeGEpfE0gq-120" edge="1">
          <mxGeometry relative="1" as="geometry" />
        </mxCell>
        <mxCell id="yMm0w9uxBuSeGEpfE0gq-130" style="edgeStyle=orthogonalEdgeStyle;rounded=0;orthogonalLoop=1;jettySize=auto;html=1;exitX=0.5;exitY=0;exitDx=0;exitDy=0;entryX=0.5;entryY=1;entryDx=0;entryDy=0;endArrow=doubleBlock;endFill=1;" parent="1" source="yMm0w9uxBuSeGEpfE0gq-66" target="yMm0w9uxBuSeGEpfE0gq-129" edge="1">
          <mxGeometry relative="1" as="geometry" />
        </mxCell>
        <mxCell id="yMm0w9uxBuSeGEpfE0gq-66" value="Customer" style="rounded=0;whiteSpace=wrap;html=1;" parent="1" vertex="1">
          <mxGeometry x="1610" y="160" width="120" height="60" as="geometry" />
        </mxCell>
        <mxCell id="yMm0w9uxBuSeGEpfE0gq-67" value="" style="ellipse;whiteSpace=wrap;html=1;aspect=fixed;" parent="1" vertex="1">
          <mxGeometry x="1770" y="250" width="30" height="30" as="geometry" />
        </mxCell>
        <mxCell id="yMm0w9uxBuSeGEpfE0gq-68" value="Nome" style="text;html=1;align=left;verticalAlign=middle;whiteSpace=wrap;rounded=0;" parent="1" vertex="1">
          <mxGeometry x="1800" y="250" width="60" height="30" as="geometry" />
        </mxCell>
        <mxCell id="yMm0w9uxBuSeGEpfE0gq-69" value="" style="ellipse;whiteSpace=wrap;html=1;aspect=fixed;" parent="1" vertex="1">
          <mxGeometry x="1770" y="290" width="30" height="30" as="geometry" />
        </mxCell>
        <mxCell id="yMm0w9uxBuSeGEpfE0gq-70" value="Cognome" style="text;html=1;align=left;verticalAlign=middle;whiteSpace=wrap;rounded=0;" parent="1" vertex="1">
          <mxGeometry x="1800" y="290" width="60" height="30" as="geometry" />
        </mxCell>
        <mxCell id="yMm0w9uxBuSeGEpfE0gq-71" value="" style="ellipse;whiteSpace=wrap;html=1;aspect=fixed;" parent="1" vertex="1">
          <mxGeometry x="1770" y="330" width="30" height="30" as="geometry" />
        </mxCell>
        <mxCell id="yMm0w9uxBuSeGEpfE0gq-72" value="Email" style="text;html=1;align=left;verticalAlign=middle;whiteSpace=wrap;rounded=0;" parent="1" vertex="1">
          <mxGeometry x="1800" y="330" width="80" height="30" as="geometry" />
        </mxCell>
        <mxCell id="yMm0w9uxBuSeGEpfE0gq-73" value="" style="ellipse;whiteSpace=wrap;html=1;aspect=fixed;" parent="1" vertex="1">
          <mxGeometry x="1770" y="370" width="30" height="30" as="geometry" />
        </mxCell>
        <mxCell id="yMm0w9uxBuSeGEpfE0gq-74" value="Telefono" style="text;html=1;align=left;verticalAlign=middle;whiteSpace=wrap;rounded=0;" parent="1" vertex="1">
          <mxGeometry x="1800" y="370" width="80" height="30" as="geometry" />
        </mxCell>
        <mxCell id="yMm0w9uxBuSeGEpfE0gq-75" style="edgeStyle=orthogonalEdgeStyle;rounded=0;orthogonalLoop=1;jettySize=auto;html=1;exitX=0.5;exitY=1;exitDx=0;exitDy=0;entryX=0;entryY=0.5;entryDx=0;entryDy=0;" parent="1" source="yMm0w9uxBuSeGEpfE0gq-79" target="yMm0w9uxBuSeGEpfE0gq-80" edge="1">
          <mxGeometry relative="1" as="geometry">
            <Array as="points">
              <mxPoint x="1170" y="-230" />
              <mxPoint x="1170" y="-185" />
            </Array>
          </mxGeometry>
        </mxCell>
        <mxCell id="yMm0w9uxBuSeGEpfE0gq-76" style="edgeStyle=orthogonalEdgeStyle;rounded=0;orthogonalLoop=1;jettySize=auto;html=1;exitX=0.5;exitY=1;exitDx=0;exitDy=0;entryX=0;entryY=0.5;entryDx=0;entryDy=0;" parent="1" source="yMm0w9uxBuSeGEpfE0gq-79" target="yMm0w9uxBuSeGEpfE0gq-82" edge="1">
          <mxGeometry relative="1" as="geometry">
            <Array as="points">
              <mxPoint x="1170" y="-230" />
              <mxPoint x="1170" y="-145" />
            </Array>
          </mxGeometry>
        </mxCell>
        <mxCell id="yMm0w9uxBuSeGEpfE0gq-77" style="edgeStyle=orthogonalEdgeStyle;rounded=0;orthogonalLoop=1;jettySize=auto;html=1;exitX=0.5;exitY=1;exitDx=0;exitDy=0;entryX=0;entryY=0.5;entryDx=0;entryDy=0;" parent="1" source="yMm0w9uxBuSeGEpfE0gq-79" target="yMm0w9uxBuSeGEpfE0gq-84" edge="1">
          <mxGeometry relative="1" as="geometry">
            <Array as="points">
              <mxPoint x="1170" y="-230" />
              <mxPoint x="1170" y="-105" />
            </Array>
          </mxGeometry>
        </mxCell>
        <mxCell id="yMm0w9uxBuSeGEpfE0gq-78" style="edgeStyle=orthogonalEdgeStyle;rounded=0;orthogonalLoop=1;jettySize=auto;html=1;exitX=0.5;exitY=1;exitDx=0;exitDy=0;entryX=0;entryY=0.5;entryDx=0;entryDy=0;" parent="1" source="yMm0w9uxBuSeGEpfE0gq-79" target="yMm0w9uxBuSeGEpfE0gq-86" edge="1">
          <mxGeometry relative="1" as="geometry">
            <Array as="points">
              <mxPoint x="1170" y="-230" />
              <mxPoint x="1170" y="-65" />
            </Array>
          </mxGeometry>
        </mxCell>
        <mxCell id="yMm0w9uxBuSeGEpfE0gq-125" style="edgeStyle=orthogonalEdgeStyle;rounded=0;orthogonalLoop=1;jettySize=auto;html=1;exitX=0.5;exitY=1;exitDx=0;exitDy=0;entryX=0.5;entryY=0;entryDx=0;entryDy=0;" parent="1" source="yMm0w9uxBuSeGEpfE0gq-79" target="yMm0w9uxBuSeGEpfE0gq-124" edge="1">
          <mxGeometry relative="1" as="geometry" />
        </mxCell>
        <mxCell id="yMm0w9uxBuSeGEpfE0gq-132" style="edgeStyle=orthogonalEdgeStyle;rounded=0;orthogonalLoop=1;jettySize=auto;html=1;exitX=1;exitY=0.5;exitDx=0;exitDy=0;entryX=0;entryY=0.5;entryDx=0;entryDy=0;" parent="1" source="yMm0w9uxBuSeGEpfE0gq-79" target="yMm0w9uxBuSeGEpfE0gq-129" edge="1">
          <mxGeometry relative="1" as="geometry" />
        </mxCell>
        <mxCell id="yMm0w9uxBuSeGEpfE0gq-79" value="Review" style="rounded=0;whiteSpace=wrap;html=1;" parent="1" vertex="1">
          <mxGeometry x="1070" y="-280" width="120" height="60" as="geometry" />
        </mxCell>
        <mxCell id="yMm0w9uxBuSeGEpfE0gq-80" value="" style="ellipse;whiteSpace=wrap;html=1;aspect=fixed;" parent="1" vertex="1">
          <mxGeometry x="1230" y="-200" width="30" height="30" as="geometry" />
        </mxCell>
        <mxCell id="yMm0w9uxBuSeGEpfE0gq-81" value="Descrizione" style="text;html=1;align=left;verticalAlign=middle;whiteSpace=wrap;rounded=0;" parent="1" vertex="1">
          <mxGeometry x="1260" y="-200" width="60" height="30" as="geometry" />
        </mxCell>
        <mxCell id="yMm0w9uxBuSeGEpfE0gq-82" value="" style="ellipse;whiteSpace=wrap;html=1;aspect=fixed;" parent="1" vertex="1">
          <mxGeometry x="1230" y="-160" width="30" height="30" as="geometry" />
        </mxCell>
        <mxCell id="yMm0w9uxBuSeGEpfE0gq-83" value="Recensione" style="text;html=1;align=left;verticalAlign=middle;whiteSpace=wrap;rounded=0;" parent="1" vertex="1">
          <mxGeometry x="1260" y="-160" width="60" height="30" as="geometry" />
        </mxCell>
        <mxCell id="yMm0w9uxBuSeGEpfE0gq-84" value="" style="ellipse;whiteSpace=wrap;html=1;aspect=fixed;" parent="1" vertex="1">
          <mxGeometry x="1230" y="-120" width="30" height="30" as="geometry" />
        </mxCell>
        <mxCell id="yMm0w9uxBuSeGEpfE0gq-85" value="Valutazione" style="text;html=1;align=left;verticalAlign=middle;whiteSpace=wrap;rounded=0;" parent="1" vertex="1">
          <mxGeometry x="1260" y="-120" width="80" height="30" as="geometry" />
        </mxCell>
        <mxCell id="yMm0w9uxBuSeGEpfE0gq-86" value="" style="ellipse;whiteSpace=wrap;html=1;aspect=fixed;" parent="1" vertex="1">
          <mxGeometry x="1230" y="-80" width="30" height="30" as="geometry" />
        </mxCell>
        <mxCell id="yMm0w9uxBuSeGEpfE0gq-87" value="Data Recensione" style="text;html=1;align=left;verticalAlign=middle;whiteSpace=wrap;rounded=0;" parent="1" vertex="1">
          <mxGeometry x="1260" y="-80" width="100" height="30" as="geometry" />
        </mxCell>
        <mxCell id="yMm0w9uxBuSeGEpfE0gq-88" style="edgeStyle=orthogonalEdgeStyle;rounded=0;orthogonalLoop=1;jettySize=auto;html=1;exitX=0.5;exitY=1;exitDx=0;exitDy=0;entryX=0;entryY=0.5;entryDx=0;entryDy=0;" parent="1" source="yMm0w9uxBuSeGEpfE0gq-92" target="yMm0w9uxBuSeGEpfE0gq-93" edge="1">
          <mxGeometry relative="1" as="geometry" />
        </mxCell>
        <mxCell id="yMm0w9uxBuSeGEpfE0gq-89" style="edgeStyle=orthogonalEdgeStyle;rounded=0;orthogonalLoop=1;jettySize=auto;html=1;exitX=0.5;exitY=1;exitDx=0;exitDy=0;entryX=0;entryY=0.5;entryDx=0;entryDy=0;" parent="1" source="yMm0w9uxBuSeGEpfE0gq-92" target="yMm0w9uxBuSeGEpfE0gq-95" edge="1">
          <mxGeometry relative="1" as="geometry" />
        </mxCell>
        <mxCell id="yMm0w9uxBuSeGEpfE0gq-90" style="edgeStyle=orthogonalEdgeStyle;rounded=0;orthogonalLoop=1;jettySize=auto;html=1;exitX=0.5;exitY=1;exitDx=0;exitDy=0;entryX=0;entryY=0.5;entryDx=0;entryDy=0;" parent="1" source="yMm0w9uxBuSeGEpfE0gq-92" target="yMm0w9uxBuSeGEpfE0gq-97" edge="1">
          <mxGeometry relative="1" as="geometry" />
        </mxCell>
        <mxCell id="yMm0w9uxBuSeGEpfE0gq-91" style="edgeStyle=orthogonalEdgeStyle;rounded=0;orthogonalLoop=1;jettySize=auto;html=1;exitX=0.5;exitY=1;exitDx=0;exitDy=0;entryX=0;entryY=0.5;entryDx=0;entryDy=0;" parent="1" source="yMm0w9uxBuSeGEpfE0gq-92" target="yMm0w9uxBuSeGEpfE0gq-99" edge="1">
          <mxGeometry relative="1" as="geometry" />
        </mxCell>
        <mxCell id="yMm0w9uxBuSeGEpfE0gq-106" style="edgeStyle=orthogonalEdgeStyle;rounded=0;orthogonalLoop=1;jettySize=auto;html=1;exitX=0.5;exitY=0;exitDx=0;exitDy=0;entryX=0.5;entryY=1;entryDx=0;entryDy=0;" parent="1" source="yMm0w9uxBuSeGEpfE0gq-92" target="yMm0w9uxBuSeGEpfE0gq-105" edge="1">
          <mxGeometry relative="1" as="geometry" />
        </mxCell>
        <mxCell id="yMm0w9uxBuSeGEpfE0gq-92" value="Employee" style="rounded=0;whiteSpace=wrap;html=1;" parent="1" vertex="1">
          <mxGeometry x="-40" y="670" width="120" height="60" as="geometry" />
        </mxCell>
        <mxCell id="yMm0w9uxBuSeGEpfE0gq-93" value="" style="ellipse;whiteSpace=wrap;html=1;aspect=fixed;" parent="1" vertex="1">
          <mxGeometry x="80" y="760" width="30" height="30" as="geometry" />
        </mxCell>
        <mxCell id="yMm0w9uxBuSeGEpfE0gq-94" value="Nome" style="text;html=1;align=left;verticalAlign=middle;whiteSpace=wrap;rounded=0;" parent="1" vertex="1">
          <mxGeometry x="110" y="760" width="60" height="30" as="geometry" />
        </mxCell>
        <mxCell id="yMm0w9uxBuSeGEpfE0gq-95" value="" style="ellipse;whiteSpace=wrap;html=1;aspect=fixed;" parent="1" vertex="1">
          <mxGeometry x="80" y="800" width="30" height="30" as="geometry" />
        </mxCell>
        <mxCell id="yMm0w9uxBuSeGEpfE0gq-96" value="Cognome" style="text;html=1;align=left;verticalAlign=middle;whiteSpace=wrap;rounded=0;" parent="1" vertex="1">
          <mxGeometry x="110" y="800" width="60" height="30" as="geometry" />
        </mxCell>
        <mxCell id="yMm0w9uxBuSeGEpfE0gq-97" value="" style="ellipse;whiteSpace=wrap;html=1;aspect=fixed;" parent="1" vertex="1">
          <mxGeometry x="80" y="840" width="30" height="30" as="geometry" />
        </mxCell>
        <mxCell id="yMm0w9uxBuSeGEpfE0gq-98" value="Posizione" style="text;html=1;align=left;verticalAlign=middle;whiteSpace=wrap;rounded=0;" parent="1" vertex="1">
          <mxGeometry x="110" y="840" width="80" height="30" as="geometry" />
        </mxCell>
        <mxCell id="yMm0w9uxBuSeGEpfE0gq-99" value="" style="ellipse;whiteSpace=wrap;html=1;aspect=fixed;" parent="1" vertex="1">
          <mxGeometry x="80" y="880" width="30" height="30" as="geometry" />
        </mxCell>
        <mxCell id="yMm0w9uxBuSeGEpfE0gq-100" value="Data assunzione" style="text;html=1;align=left;verticalAlign=middle;whiteSpace=wrap;rounded=0;" parent="1" vertex="1">
          <mxGeometry x="110" y="880" width="100" height="30" as="geometry" />
        </mxCell>
        <mxCell id="yMm0w9uxBuSeGEpfE0gq-101" value="Possiede" style="rhombus;whiteSpace=wrap;html=1;" parent="1" vertex="1">
          <mxGeometry x="270" y="150" width="80" height="80" as="geometry" />
        </mxCell>
        <mxCell id="yMm0w9uxBuSeGEpfE0gq-103" value="" style="endArrow=none;html=1;rounded=0;" parent="1" edge="1">
          <mxGeometry width="50" height="50" relative="1" as="geometry">
            <mxPoint x="110" y="210" as="sourcePoint" />
            <mxPoint x="110" y="170" as="targetPoint" />
          </mxGeometry>
        </mxCell>
        <mxCell id="yMm0w9uxBuSeGEpfE0gq-105" value="Lavora" style="rhombus;whiteSpace=wrap;html=1;" parent="1" vertex="1">
          <mxGeometry x="-20" y="410" width="80" height="80" as="geometry" />
        </mxCell>
        <mxCell id="yMm0w9uxBuSeGEpfE0gq-108" value="" style="endArrow=none;html=1;rounded=0;" parent="1" edge="1">
          <mxGeometry width="50" height="50" relative="1" as="geometry">
            <mxPoint y="270" as="sourcePoint" />
            <mxPoint x="40" y="270" as="targetPoint" />
          </mxGeometry>
        </mxCell>
        <mxCell id="yMm0w9uxBuSeGEpfE0gq-109" value="Trasmette" style="rhombus;whiteSpace=wrap;html=1;" parent="1" vertex="1">
          <mxGeometry x="830" y="150" width="80" height="80" as="geometry" />
        </mxCell>
        <mxCell id="yMm0w9uxBuSeGEpfE0gq-111" value="" style="endArrow=none;html=1;rounded=0;" parent="1" edge="1">
          <mxGeometry width="50" height="50" relative="1" as="geometry">
            <mxPoint x="660" y="210" as="sourcePoint" />
            <mxPoint x="660" y="170" as="targetPoint" />
          </mxGeometry>
        </mxCell>
        <mxCell id="yMm0w9uxBuSeGEpfE0gq-113" value="riguarda" style="rhombus;whiteSpace=wrap;html=1;" parent="1" vertex="1">
          <mxGeometry x="1090" y="400" width="80" height="80" as="geometry" />
        </mxCell>
        <mxCell id="yMm0w9uxBuSeGEpfE0gq-116" value="Riferisce" style="rhombus;whiteSpace=wrap;html=1;" parent="1" vertex="1">
          <mxGeometry x="1380" y="615" width="80" height="80" as="geometry" />
        </mxCell>
        <mxCell id="yMm0w9uxBuSeGEpfE0gq-118" value="" style="endArrow=none;html=1;rounded=0;" parent="1" edge="1">
          <mxGeometry width="50" height="50" relative="1" as="geometry">
            <mxPoint x="1210" y="670" as="sourcePoint" />
            <mxPoint x="1210" y="640" as="targetPoint" />
          </mxGeometry>
        </mxCell>
        <mxCell id="yMm0w9uxBuSeGEpfE0gq-120" value="Compra" style="rhombus;whiteSpace=wrap;html=1;" parent="1" vertex="1">
          <mxGeometry x="1630" y="390" width="80" height="80" as="geometry" />
        </mxCell>
        <mxCell id="yMm0w9uxBuSeGEpfE0gq-123" value="" style="endArrow=none;html=1;rounded=0;" parent="1" edge="1">
          <mxGeometry width="50" height="50" relative="1" as="geometry">
            <mxPoint x="1650" y="610" as="sourcePoint" />
            <mxPoint x="1690" y="610" as="targetPoint" />
          </mxGeometry>
        </mxCell>
        <mxCell id="yMm0w9uxBuSeGEpfE0gq-124" value="Riguarda" style="rhombus;whiteSpace=wrap;html=1;" parent="1" vertex="1">
          <mxGeometry x="1090" y="-80" width="80" height="80" as="geometry" />
        </mxCell>
        <mxCell id="yMm0w9uxBuSeGEpfE0gq-128" value="" style="endArrow=none;html=1;rounded=0;" parent="1" edge="1">
          <mxGeometry width="50" height="50" relative="1" as="geometry">
            <mxPoint x="1110" y="140" as="sourcePoint" />
            <mxPoint x="1150" y="140" as="targetPoint" />
          </mxGeometry>
        </mxCell>
        <mxCell id="yMm0w9uxBuSeGEpfE0gq-129" value="Effettua" style="rhombus;whiteSpace=wrap;html=1;" parent="1" vertex="1">
          <mxGeometry x="1630" y="-290" width="80" height="80" as="geometry" />
        </mxCell>
        <mxCell id="yMm0w9uxBuSeGEpfE0gq-131" value="" style="endArrow=none;html=1;rounded=0;" parent="1" edge="1">
          <mxGeometry width="50" height="50" relative="1" as="geometry">
            <mxPoint x="1650" y="130" as="sourcePoint" />
            <mxPoint x="1690" y="130" as="targetPoint" />
          </mxGeometry>
        </mxCell>
        <mxCell id="ANIoNiks0u0OtfKDdg4u-2" value="" style="endArrow=none;html=1;rounded=0;" edge="1" parent="1">
          <mxGeometry width="50" height="50" relative="1" as="geometry">
            <mxPoint x="1110" y="240" as="sourcePoint" />
            <mxPoint x="1150" y="240" as="targetPoint" />
          </mxGeometry>
        </mxCell>
      </root>
    </mxGraphModel>
  </diagram>
</mxfile>
